<svg width="250" height="250" viewBox="0 0 250 250" fill="none" xmlns="http://www.w3.org/2000/svg">
<g filter="url(#filter0_di_16_13)">
<path d="M18.9545 125.023V121.5C22.1174 121.5 24.3239 120.837 25.5739 119.511C26.8428 118.186 27.4773 115.97 27.4773 112.864V103.773C27.4773 101.159 27.7235 98.8958 28.2159 96.983C28.7273 95.0701 29.5511 93.4886 30.6875 92.2386C31.8239 90.9886 33.339 90.0606 35.233 89.4545C37.1269 88.8485 39.4659 88.5455 42.25 88.5455V94.1136C40.053 94.1136 38.3201 94.4545 37.0511 95.1364C35.8011 95.8182 34.911 96.8788 34.3807 98.3182C33.8693 99.7386 33.6136 101.557 33.6136 103.773V115.136C33.6136 116.614 33.4148 117.958 33.017 119.17C32.6383 120.383 31.928 121.424 30.8864 122.295C29.8447 123.167 28.358 123.839 26.4261 124.312C24.5133 124.786 22.0227 125.023 18.9545 125.023ZM42.25 161.273C39.4659 161.273 37.1269 160.97 35.233 160.364C33.339 159.758 31.8239 158.83 30.6875 157.58C29.5511 156.33 28.7273 154.748 28.2159 152.835C27.7235 150.922 27.4773 148.659 27.4773 146.045V136.955C27.4773 133.848 26.8428 131.633 25.5739 130.307C24.3239 128.981 22.1174 128.318 18.9545 128.318V124.795C22.0227 124.795 24.5133 125.032 26.4261 125.506C28.358 125.979 29.8447 126.652 30.8864 127.523C31.928 128.394 32.6383 129.436 33.017 130.648C33.4148 131.86 33.6136 133.205 33.6136 134.682V146.045C33.6136 148.261 33.8693 150.08 34.3807 151.5C34.911 152.92 35.8011 153.972 37.0511 154.653C38.3201 155.354 40.053 155.705 42.25 155.705V161.273ZM18.9545 128.318V121.5H25.6591V128.318H18.9545ZM83.848 110.364C83.5071 107.485 82.1245 105.25 79.7003 103.659C77.276 102.068 74.3026 101.273 70.7798 101.273C68.2041 101.273 65.9503 101.689 64.0185 102.523C62.1056 103.356 60.6094 104.502 59.5298 105.96C58.4692 107.419 57.9389 109.076 57.9389 110.932C57.9389 112.485 58.3082 113.82 59.0469 114.938C59.8045 116.036 60.7704 116.955 61.9446 117.693C63.1188 118.413 64.3499 119.009 65.6378 119.483C66.9257 119.937 68.1094 120.307 69.1889 120.591L75.098 122.182C76.6132 122.58 78.2988 123.129 80.1548 123.83C82.0298 124.53 83.8196 125.487 85.5241 126.699C87.2476 127.892 88.6681 129.426 89.7855 131.301C90.9029 133.176 91.4616 135.477 91.4616 138.205C91.4616 141.348 90.6378 144.189 88.9901 146.727C87.3613 149.265 84.9749 151.282 81.831 152.778C78.706 154.275 74.9086 155.023 70.4389 155.023C66.2723 155.023 62.6643 154.35 59.6151 153.006C56.5848 151.661 54.1984 149.786 52.456 147.381C50.7325 144.975 49.7571 142.182 49.5298 139H56.8026C56.992 141.197 57.7306 143.015 59.0185 144.455C60.3253 145.875 61.973 146.936 63.9616 147.636C65.9692 148.318 68.1283 148.659 70.4389 148.659C73.1283 148.659 75.5431 148.223 77.6832 147.352C79.8234 146.462 81.5185 145.231 82.7685 143.659C84.0185 142.068 84.6435 140.212 84.6435 138.091C84.6435 136.159 84.1037 134.587 83.0241 133.375C81.9446 132.163 80.5241 131.178 78.7628 130.42C77.0014 129.663 75.098 129 73.0526 128.432L65.8935 126.386C61.348 125.08 57.7495 123.214 55.098 120.79C52.4465 118.366 51.1207 115.193 51.1207 111.273C51.1207 108.015 52.0014 105.174 53.7628 102.75C55.5431 100.307 57.9295 98.4129 60.9219 97.0682C63.9332 95.7045 67.295 95.0227 71.0071 95.0227C74.7571 95.0227 78.0904 95.6951 81.0071 97.0398C83.9238 98.3655 86.2344 100.184 87.9389 102.494C89.6624 104.805 90.5715 107.428 90.6662 110.364H83.848ZM121 154H103.045V95.8182H121.795C127.439 95.8182 132.269 96.983 136.284 99.3125C140.299 101.623 143.377 104.947 145.517 109.284C147.657 113.602 148.727 118.773 148.727 124.795C148.727 130.856 147.648 136.074 145.489 140.449C143.33 144.805 140.186 148.157 136.057 150.506C131.928 152.835 126.909 154 121 154ZM110.091 147.75H120.545C125.356 147.75 129.343 146.822 132.506 144.966C135.669 143.11 138.027 140.468 139.58 137.04C141.133 133.612 141.909 129.53 141.909 124.795C141.909 120.098 141.142 116.055 139.608 112.665C138.074 109.256 135.782 106.642 132.733 104.824C129.684 102.987 125.886 102.068 121.341 102.068H110.091V147.75ZM160.197 154H152.811L174.175 95.8182H181.447L202.811 154H195.425L178.038 105.023H177.584L160.197 154ZM162.925 131.273H192.697V137.523H162.925V131.273ZM230.851 124.795V128.318C227.688 128.318 225.472 128.981 224.203 130.307C222.953 131.633 222.328 133.848 222.328 136.955V146.045C222.328 148.659 222.072 150.922 221.561 152.835C221.069 154.748 220.254 156.33 219.118 157.58C217.982 158.83 216.466 159.758 214.572 160.364C212.679 160.97 210.339 161.273 207.555 161.273V155.705C209.752 155.705 211.476 155.354 212.726 154.653C213.995 153.972 214.885 152.92 215.396 151.5C215.927 150.08 216.192 148.261 216.192 146.045V134.682C216.192 133.205 216.381 131.86 216.76 130.648C217.158 129.436 217.877 128.394 218.919 127.523C219.961 126.652 221.438 125.979 223.351 125.506C225.283 125.032 227.783 124.795 230.851 124.795ZM207.555 88.5455C210.339 88.5455 212.679 88.8485 214.572 89.4545C216.466 90.0606 217.982 90.9886 219.118 92.2386C220.254 93.4886 221.069 95.0701 221.561 96.983C222.072 98.8958 222.328 101.159 222.328 103.773V112.864C222.328 115.97 222.953 118.186 224.203 119.511C225.472 120.837 227.688 121.5 230.851 121.5V125.023C227.783 125.023 225.283 124.786 223.351 124.312C221.438 123.839 219.961 123.167 218.919 122.295C217.877 121.424 217.158 120.383 216.76 119.17C216.381 117.958 216.192 116.614 216.192 115.136V103.773C216.192 101.557 215.927 99.7386 215.396 98.3182C214.885 96.8788 213.995 95.8182 212.726 95.1364C211.476 94.4545 209.752 94.1136 207.555 94.1136V88.5455ZM230.851 121.5V128.318H224.146V121.5H230.851Z" fill="url(#paint0_linear_16_13)"/>
</g>
<defs>
<filter id="filter0_di_16_13" x="14.9545" y="88.5454" width="219.896" height="80.7273" filterUnits="userSpaceOnUse" color-interpolation-filters="sRGB">
<feFlood flood-opacity="0" result="BackgroundImageFix"/>
<feColorMatrix in="SourceAlpha" type="matrix" values="0 0 0 0 0 0 0 0 0 0 0 0 0 0 0 0 0 0 127 0" result="hardAlpha"/>
<feOffset dy="4"/>
<feGaussianBlur stdDeviation="2"/>
<feComposite in2="hardAlpha" operator="out"/>
<feColorMatrix type="matrix" values="0 0 0 0 0 0 0 0 0 0 0 0 0 0 0 0 0 0 0.25 0"/>
<feBlend mode="normal" in2="BackgroundImageFix" result="effect1_dropShadow_16_13"/>
<feBlend mode="normal" in="SourceGraphic" in2="effect1_dropShadow_16_13" result="shape"/>
<feColorMatrix in="SourceAlpha" type="matrix" values="0 0 0 0 0 0 0 0 0 0 0 0 0 0 0 0 0 0 127 0" result="hardAlpha"/>
<feOffset dy="4"/>
<feGaussianBlur stdDeviation="2"/>
<feComposite in2="hardAlpha" operator="arithmetic" k2="-1" k3="1"/>
<feColorMatrix type="matrix" values="0 0 0 0 0 0 0 0 0 0 0 0 0 0 0 0 0 0 0.25 0"/>
<feBlend mode="normal" in2="shape" result="effect2_innerShadow_16_13"/>
</filter>
<linearGradient id="paint0_linear_16_13" x1="125" y1="148.86" x2="125" y2="68.82" gradientUnits="userSpaceOnUse">
<stop stop-color="white"/>
<stop offset="1" stop-color="#48F038"/>
</linearGradient>
</defs>
</svg>
